<svg width="47" height="47" viewBox="0 0 47 47" fill="none" xmlns="http://www.w3.org/2000/svg">
<circle cx="23.5" cy="23.5" r="22.5" fill="white" stroke="#FCC26B" stroke-width="2"/>
<mask id="path-2-inside-1_28_225" fill="white">
<path d="M37.6675 35.7589L33.281 32.5414C31.0625 30.914 29.7381 28.3004 29.7381 25.5491V24.8549L35.2093 21.4309C36.2167 20.8006 36.5232 19.4683 35.893 18.4606C35.2624 17.453 33.9294 17.1471 32.9227 17.7773L29.7381 19.7706V17.777C29.7381 13.2749 26.0756 9.61243 21.5735 9.61243C17.0713 9.61243 13.4089 13.2752 13.4089 17.777V18.9951L11.4631 17.7773C10.4558 17.1467 9.12343 17.4536 8.49316 18.4606C7.86288 19.468 8.16946 20.8003 9.17678 21.4309L13.4092 24.0798V25.5646C13.4092 31.514 18.2492 36.354 24.1986 36.354H37.4733C37.6158 36.354 37.7416 36.2624 37.7861 36.1274C37.8299 35.9917 37.7825 35.8432 37.6675 35.7589ZM9.52583 20.8727C8.8264 20.4348 8.61335 19.5098 9.05131 18.8103C9.33484 18.3569 9.82319 18.1083 10.3221 18.1083C10.5931 18.1083 10.8674 18.1817 11.1134 18.3358L13.4086 19.7722V23.3026L9.52583 20.8727ZM24.1983 35.6954C18.6121 35.6954 14.0678 31.1507 14.0678 25.5649V23.8977V19.5901V17.777C14.0678 13.6381 17.4349 10.271 21.5738 10.271C25.7124 10.271 29.0798 13.6381 29.0798 17.777V20.1825L26.0236 22.0954C25.8692 22.1919 25.8227 22.3951 25.9192 22.5492C26.0154 22.7033 26.2185 22.7494 26.373 22.6536L33.2727 18.3352C33.9728 17.8979 34.8982 18.1106 35.3355 18.8097C35.7731 19.5094 35.5604 20.4344 34.8609 20.8721L27.9602 25.1908C27.8058 25.2873 27.7593 25.4905 27.8558 25.6446C27.8775 25.6795 27.9062 25.7068 27.9375 25.7302C27.9441 25.7351 27.95 25.7397 27.9569 25.744C27.9888 25.7648 28.0228 25.7809 28.0593 25.7895C28.0626 25.7901 28.0662 25.7901 28.0695 25.7908C28.0913 25.7951 28.1133 25.799 28.1354 25.799C28.1469 25.799 28.1584 25.7954 28.1703 25.7941C28.1805 25.7931 28.1904 25.7921 28.2003 25.7898C28.2375 25.7822 28.2737 25.7704 28.3079 25.7493C28.3086 25.749 28.3093 25.749 28.3099 25.7486L29.0798 25.2669V25.5484C29.0798 28.5085 30.5047 31.321 32.8917 33.0719L36.4676 35.6944H24.1983V35.6954Z"/>
</mask>
<path d="M37.6675 35.7589L33.281 32.5414C31.0625 30.914 29.7381 28.3004 29.7381 25.5491V24.8549L35.2093 21.4309C36.2167 20.8006 36.5232 19.4683 35.893 18.4606C35.2624 17.453 33.9294 17.1471 32.9227 17.7773L29.7381 19.7706V17.777C29.7381 13.2749 26.0756 9.61243 21.5735 9.61243C17.0713 9.61243 13.4089 13.2752 13.4089 17.777V18.9951L11.4631 17.7773C10.4558 17.1467 9.12343 17.4536 8.49316 18.4606C7.86288 19.468 8.16946 20.8003 9.17678 21.4309L13.4092 24.0798V25.5646C13.4092 31.514 18.2492 36.354 24.1986 36.354H37.4733C37.6158 36.354 37.7416 36.2624 37.7861 36.1274C37.8299 35.9917 37.7825 35.8432 37.6675 35.7589ZM9.52583 20.8727C8.8264 20.4348 8.61335 19.5098 9.05131 18.8103C9.33484 18.3569 9.82319 18.1083 10.3221 18.1083C10.5931 18.1083 10.8674 18.1817 11.1134 18.3358L13.4086 19.7722V23.3026L9.52583 20.8727ZM24.1983 35.6954C18.6121 35.6954 14.0678 31.1507 14.0678 25.5649V23.8977V19.5901V17.777C14.0678 13.6381 17.4349 10.271 21.5738 10.271C25.7124 10.271 29.0798 13.6381 29.0798 17.777V20.1825L26.0236 22.0954C25.8692 22.1919 25.8227 22.3951 25.9192 22.5492C26.0154 22.7033 26.2185 22.7494 26.373 22.6536L33.2727 18.3352C33.9728 17.8979 34.8982 18.1106 35.3355 18.8097C35.7731 19.5094 35.5604 20.4344 34.8609 20.8721L27.9602 25.1908C27.8058 25.2873 27.7593 25.4905 27.8558 25.6446C27.8775 25.6795 27.9062 25.7068 27.9375 25.7302C27.9441 25.7351 27.95 25.7397 27.9569 25.744C27.9888 25.7648 28.0228 25.7809 28.0593 25.7895C28.0626 25.7901 28.0662 25.7901 28.0695 25.7908C28.0913 25.7951 28.1133 25.799 28.1354 25.799C28.1469 25.799 28.1584 25.7954 28.1703 25.7941C28.1805 25.7931 28.1904 25.7921 28.2003 25.7898C28.2375 25.7822 28.2737 25.7704 28.3079 25.7493C28.3086 25.749 28.3093 25.749 28.3099 25.7486L29.0798 25.2669V25.5484C29.0798 28.5085 30.5047 31.321 32.8917 33.0719L36.4676 35.6944H24.1983V35.6954Z" fill="#535353"/>
<path d="M37.6675 35.7589L40.0334 32.5336L40.0334 32.5336L37.6675 35.7589ZM33.281 32.5414L30.915 35.7666L30.9152 35.7667L33.281 32.5414ZM29.7381 24.8549L27.6161 21.4642L25.7381 22.6395V24.8549H29.7381ZM35.2093 21.4309L33.0877 18.04L33.0873 18.0401L35.2093 21.4309ZM35.893 18.4606L39.2842 16.3394L39.2837 16.3386L35.893 18.4606ZM32.9227 17.7773L35.0449 21.168L35.0454 21.1677L32.9227 17.7773ZM29.7381 19.7706H25.7381V26.993L31.8602 23.1612L29.7381 19.7706ZM13.4089 18.9951L11.2869 22.3858L17.4089 26.2171V18.9951H13.4089ZM11.4631 17.7773L9.3406 21.1678L9.34108 21.1681L11.4631 17.7773ZM8.49316 18.4606L5.10253 16.3384L5.10222 16.3389L8.49316 18.4606ZM9.17678 21.4309L7.05429 24.8213L7.05472 24.8216L9.17678 21.4309ZM13.4092 24.0798H17.4092V21.8644L15.5313 20.6891L13.4092 24.0798ZM37.7861 36.1274L41.5854 37.3784L41.5891 37.3673L41.5927 37.3562L37.7861 36.1274ZM9.52583 20.8727L7.40297 24.2629L7.40385 24.2635L9.52583 20.8727ZM9.05131 18.8103L12.4415 20.9332L12.4429 20.931L9.05131 18.8103ZM11.1134 18.3358L8.98971 21.7255L8.99136 21.7266L11.1134 18.3358ZM13.4086 19.7722H17.4086V17.5568L15.5306 16.3815L13.4086 19.7722ZM13.4086 23.3026L11.2866 26.6934L17.4086 30.5246V23.3026H13.4086ZM24.1983 35.6954V39.6954H28.1983V35.6954H24.1983ZM29.0798 20.1825L31.202 23.5731L33.0798 22.3978V20.1825H29.0798ZM26.0236 22.0954L28.143 25.4878L28.1458 25.486L26.0236 22.0954ZM25.9192 22.5492L29.3128 20.4318L29.3096 20.4266L25.9192 22.5492ZM26.373 22.6536L28.4819 26.0525L28.4885 26.0484L28.4951 26.0442L26.373 22.6536ZM33.2727 18.3352L31.1536 14.9426L31.1506 14.9445L33.2727 18.3352ZM35.3355 18.8097L38.7268 16.6887L38.7266 16.6884L35.3355 18.8097ZM34.8609 20.8721L32.7392 17.4812L32.7389 17.4814L34.8609 20.8721ZM27.9602 25.1908L30.0795 28.5832L30.0822 28.5815L27.9602 25.1908ZM27.8558 25.6446L31.2514 23.5303L31.2462 23.522L27.8558 25.6446ZM27.9375 25.7302L30.3375 22.5302L30.3321 22.5261L27.9375 25.7302ZM27.9569 25.744L30.1356 22.3895L30.0992 22.3658L30.0623 22.343L27.9569 25.744ZM28.0593 25.7895L27.1471 29.6841L27.2107 29.699L27.2749 29.7118L28.0593 25.7895ZM28.0695 25.7908L27.2851 29.7131L27.2965 29.7154L28.0695 25.7908ZM28.1703 25.7941L27.785 21.8127L27.7568 21.8154L27.7286 21.8185L28.1703 25.7941ZM28.2003 25.7898L27.4025 21.8702L27.3467 21.8815L27.2913 21.8944L28.2003 25.7898ZM28.3079 25.7493L26.5191 22.1716L26.3615 22.2503L26.2115 22.3427L28.3079 25.7493ZM28.3099 25.7486L30.0988 29.3263L30.2697 29.2409L30.4317 29.1395L28.3099 25.7486ZM29.0798 25.2669H33.0798V18.0453L26.958 21.876L29.0798 25.2669ZM32.8917 33.0719L30.526 36.2973L30.5262 36.2974L32.8917 33.0719ZM36.4676 35.6944V39.6944H48.6852L38.8332 32.4689L36.4676 35.6944ZM24.1983 35.6944V31.6944H20.1983V35.6944H24.1983ZM40.0334 32.5336L35.6468 29.316L30.9152 35.7667L35.3017 38.9843L40.0334 32.5336ZM35.6469 29.3161C34.4554 28.4421 33.7381 27.0261 33.7381 25.5491H25.7381C25.7381 29.5746 27.6696 33.3859 30.915 35.7666L35.6469 29.3161ZM33.7381 25.5491V24.8549H25.7381V25.5491H33.7381ZM31.8601 28.2457L37.3313 24.8216L33.0873 18.0401L27.6161 21.4642L31.8601 28.2457ZM37.331 24.8218C40.212 23.0192 41.0852 19.2187 39.2842 16.3394L32.5017 20.5818C31.9613 19.7178 32.2213 18.582 33.0877 18.04L37.331 24.8218ZM39.2837 16.3386C37.4804 13.457 33.6783 12.5849 30.8 14.387L35.0454 21.1677C34.1804 21.7092 33.0444 21.4489 32.5022 20.5826L39.2837 16.3386ZM30.8005 14.3867L27.6159 16.3799L31.8602 23.1612L35.0449 21.168L30.8005 14.3867ZM33.7381 19.7706V17.777H25.7381V19.7706H33.7381ZM33.7381 17.777C33.7381 11.0657 28.2848 5.61243 21.5735 5.61243V13.6124C23.8665 13.6124 25.7381 15.484 25.7381 17.777H33.7381ZM21.5735 5.61243C14.8621 5.61243 9.4089 11.0662 9.4089 17.777H17.4089C17.4089 15.4842 19.2806 13.6124 21.5735 13.6124V5.61243ZM9.4089 17.777V18.9951H17.4089V17.777H9.4089ZM15.5309 15.6043L13.5851 14.3866L9.34108 21.1681L11.2869 22.3858L15.5309 15.6043ZM13.5856 14.3869C10.705 12.5836 6.9045 13.4594 5.10253 16.3384L11.8838 20.5828C11.3424 21.4478 10.2066 21.7099 9.3406 21.1678L13.5856 14.3869ZM5.10222 16.3389C3.30029 19.2188 4.17492 23.0188 7.05429 24.8213L11.2993 18.0405C12.164 18.5818 12.4255 19.7171 11.8841 20.5823L5.10222 16.3389ZM7.05472 24.8216L11.2872 27.4705L15.5313 20.6891L11.2988 18.0402L7.05472 24.8216ZM9.40923 24.0798V25.5646H17.4092V24.0798H9.40923ZM9.40923 25.5646C9.40923 33.7231 16.0401 40.354 24.1986 40.354V32.354C20.4584 32.354 17.4092 29.3048 17.4092 25.5646H9.40923ZM24.1986 40.354H37.4733V32.354H24.1986V40.354ZM37.4733 40.354C39.3501 40.354 41.0031 39.1471 41.5854 37.3784L33.9867 34.8764C34.4802 33.3777 35.8816 32.354 37.4733 32.354V40.354ZM41.5927 37.3562C42.1614 35.5943 41.5496 33.6458 40.0334 32.5336L35.3017 38.9843C34.0153 38.0407 33.4983 36.3891 33.9795 34.8986L41.5927 37.3562ZM11.6487 17.4825C12.8199 18.2159 13.177 19.7586 12.4415 20.9332L5.66112 16.6875C4.04966 19.261 4.83289 22.6536 7.40297 24.2629L11.6487 17.4825ZM12.4429 20.931C11.9617 21.7006 11.1372 22.1083 10.3221 22.1083V14.1083C8.50913 14.1083 6.70802 15.0132 5.65974 16.6897L12.4429 20.931ZM10.3221 22.1083C9.86746 22.1083 9.40156 21.9836 8.98971 21.7255L13.237 14.9461C12.3332 14.3799 11.3187 14.1083 10.3221 14.1083V22.1083ZM8.99136 21.7266L11.2866 23.163L15.5306 16.3815L13.2354 14.9451L8.99136 21.7266ZM9.40857 19.7722V23.3026H17.4086V19.7722H9.40857ZM15.5306 19.9119L11.6478 17.482L7.40385 24.2635L11.2866 26.6934L15.5306 19.9119ZM24.1983 31.6954C20.8213 31.6954 18.0678 28.9417 18.0678 25.5649H10.0678C10.0678 33.3598 16.4029 39.6954 24.1983 39.6954V31.6954ZM18.0678 25.5649V23.8977H10.0678V25.5649H18.0678ZM18.0678 23.8977V19.5901H10.0678V23.8977H18.0678ZM18.0678 19.5901V17.777H10.0678V19.5901H18.0678ZM18.0678 17.777C18.0678 15.8472 19.644 14.271 21.5738 14.271V6.27102C15.2257 6.27102 10.0678 11.4289 10.0678 17.777H18.0678ZM21.5738 14.271C23.5034 14.271 25.0798 15.8473 25.0798 17.777H33.0798C33.0798 11.4288 27.9214 6.27102 21.5738 6.27102V14.271ZM25.0798 17.777V20.1825H33.0798V17.777H25.0798ZM26.9576 16.7919L23.9014 18.7048L28.1458 25.486L31.202 23.5731L26.9576 16.7919ZM23.9043 18.703C21.8696 19.9742 21.2627 22.6494 22.5289 24.6718L29.3096 20.4266C30.3828 22.1408 29.8688 24.4096 28.143 25.4878L23.9043 18.703ZM22.5256 24.6666C23.8035 26.7148 26.4769 27.2965 28.4819 26.0525L24.2641 19.2547C25.9602 18.2023 28.2272 18.6918 29.3128 20.4318L22.5256 24.6666ZM28.4951 26.0442L35.3949 21.7258L31.1506 14.9445L24.2509 19.2629L28.4951 26.0442ZM35.3919 21.7277C34.2234 22.4576 32.6807 22.1082 31.9443 20.931L38.7266 16.6884C37.1156 14.113 33.7222 13.3382 31.1536 14.9426L35.3919 21.7277ZM31.9441 20.9307C31.2116 19.7595 31.5644 18.2163 32.7392 17.4812L36.9827 24.263C39.5564 22.6526 40.3346 19.2594 38.7268 16.6887L31.9441 20.9307ZM32.7389 17.4814L25.8382 21.8001L30.0822 28.5815L36.983 24.2628L32.7389 17.4814ZM25.8409 21.7984C23.8061 23.0696 23.1993 25.7448 24.4655 27.7672L31.2462 23.522C32.3194 25.2361 31.8054 27.505 30.0795 28.5832L25.8409 21.7984ZM24.4602 27.7588C24.8257 28.3458 25.2571 28.7207 25.5429 28.9342L30.3321 22.5261C30.5552 22.6929 30.9294 23.0132 31.2514 23.5303L24.4602 27.7588ZM25.5375 28.9302C25.5345 28.9279 25.5321 28.9262 25.533 28.9268C25.5331 28.9269 25.5342 28.9277 25.5353 28.9286C25.5366 28.9295 25.5385 28.9309 25.5407 28.9326C25.5489 28.9388 25.569 28.9538 25.5945 28.9724C25.6471 29.0106 25.7364 29.0739 25.8515 29.1451L30.0623 22.343C30.1705 22.4099 30.2534 22.4687 30.2997 22.5023C30.322 22.5186 30.3389 22.5313 30.3439 22.535C30.3464 22.5369 30.3485 22.5385 30.3468 22.5372C30.3461 22.5367 30.3422 22.5337 30.3375 22.5302L25.5375 28.9302ZM25.7782 29.0986C26.0957 29.3048 26.5553 29.5454 27.1471 29.6841L28.9716 21.8949C29.4902 22.0164 29.882 22.2247 30.1356 22.3895L25.7782 29.0986ZM27.2749 29.7118C27.3439 29.7256 27.405 29.7359 27.4558 29.7437C27.5065 29.7515 27.5499 29.7571 27.5831 29.7611C27.6161 29.7651 27.6428 29.7679 27.6589 29.7695C27.6672 29.7704 27.6739 29.771 27.6781 29.7714C27.6802 29.7716 27.6819 29.7718 27.683 29.7719C27.6835 29.7719 27.684 29.772 27.6843 29.772C27.6846 29.772 27.6848 29.7721 27.6849 29.7721C27.6856 29.7721 27.6827 29.7719 27.6793 29.7715C27.6756 29.7712 27.6693 29.7706 27.6615 29.7698C27.6462 29.7682 27.6204 29.7655 27.5883 29.7616C27.5559 29.7577 27.5134 29.7522 27.4635 29.7446C27.4136 29.7369 27.3533 29.7267 27.2851 29.7131L28.854 21.8685C28.785 21.8547 28.7238 21.8443 28.673 21.8365C28.6223 21.8288 28.5789 21.8231 28.5457 21.8191C28.5128 21.8152 28.4861 21.8124 28.4699 21.8107C28.4617 21.8099 28.4549 21.8092 28.4508 21.8088C28.4487 21.8086 28.4469 21.8085 28.4459 21.8084C28.4453 21.8083 28.4448 21.8083 28.4445 21.8082C28.4443 21.8082 28.444 21.8082 28.444 21.8082C28.4433 21.8081 28.4461 21.8084 28.4495 21.8087C28.4532 21.8091 28.4595 21.8097 28.4673 21.8105C28.4826 21.812 28.5085 21.8147 28.5406 21.8186C28.5729 21.8225 28.6155 21.828 28.6653 21.8357C28.7153 21.8433 28.7756 21.8535 28.8438 21.8671L27.2749 29.7118ZM27.2965 29.7154C27.3162 29.7193 27.6821 29.799 28.1354 29.799V21.799C28.3592 21.799 28.5393 21.8188 28.6513 21.8344C28.7584 21.8492 28.8397 21.8656 28.8426 21.8662L27.2965 29.7154ZM28.1354 29.799C28.3453 29.799 28.5192 29.7826 28.6393 29.7676C28.756 29.7531 28.8471 29.7364 28.8781 29.7307C28.8928 29.728 28.9088 29.725 28.9031 29.726C28.9026 29.7261 28.8984 29.7269 28.8928 29.728C28.887 29.7291 28.8781 29.7307 28.8672 29.7326C28.8278 29.7397 28.7336 29.7561 28.612 29.7696L27.7286 21.8185C27.601 21.8327 27.501 21.85 27.4557 21.8582C27.4326 21.8623 27.4139 21.8659 27.411 21.8664C27.4025 21.868 27.4155 21.8655 27.4274 21.8634C27.4525 21.8587 27.5378 21.8431 27.6488 21.8292C27.7631 21.8149 27.9312 21.799 28.1354 21.799V29.799ZM28.5556 29.7755C28.5579 29.7752 28.5775 29.7734 28.6009 29.7709C28.6257 29.7682 28.6638 29.764 28.7098 29.7579C28.8015 29.7458 28.9415 29.7243 29.1092 29.6852L27.2913 21.8944C27.4492 21.8576 27.5792 21.8378 27.661 21.827C27.735 21.8172 27.796 21.8116 27.785 21.8127L28.5556 29.7755ZM28.9981 29.7094C29.3389 29.64 29.8545 29.4943 30.4043 29.1559L26.2115 22.3427C26.6929 22.0464 27.136 21.9244 27.4025 21.8702L28.9981 29.7094ZM30.0968 29.327C29.9775 29.3867 29.8655 29.4352 29.7645 29.4747C29.664 29.5139 29.5751 29.544 29.5032 29.5665C29.4672 29.5778 29.435 29.5873 29.4074 29.5952C29.3799 29.603 29.3563 29.6095 29.3377 29.6144C29.3194 29.6193 29.3045 29.6231 29.2955 29.6254C29.2909 29.6266 29.2872 29.6275 29.2849 29.6281C29.2829 29.6286 29.2811 29.629 29.2814 29.6289C29.2814 29.6289 29.2814 29.6289 29.2814 29.6289C29.2815 29.6289 29.2815 29.6289 29.2815 29.6289C29.2815 29.6289 29.2816 29.6289 29.2817 29.6289C29.2818 29.6288 29.2821 29.6288 29.2823 29.6287C29.2829 29.6286 29.2839 29.6283 29.285 29.628C29.2873 29.6275 29.2911 29.6265 29.2958 29.6253C29.3049 29.623 29.3198 29.6192 29.3382 29.6143C29.3568 29.6093 29.3806 29.6028 29.4082 29.595C29.4358 29.5871 29.4681 29.5775 29.5042 29.5662C29.5763 29.5437 29.6653 29.5136 29.766 29.4742C29.8672 29.4347 29.9793 29.3861 30.0988 29.3263L26.5211 22.1709C26.6404 22.1113 26.7523 22.0628 26.8534 22.0233C26.9539 21.984 27.0427 21.9539 27.1147 21.9314C27.1506 21.9202 27.1829 21.9106 27.2104 21.9028C27.2379 21.8949 27.2616 21.8885 27.2801 21.8835C27.2984 21.8787 27.3133 21.8748 27.3223 21.8725C27.327 21.8714 27.3307 21.8704 27.3329 21.8699C27.335 21.8693 27.3367 21.8689 27.3364 21.869C27.3364 21.869 27.3364 21.869 27.3364 21.869C27.3364 21.869 27.3364 21.869 27.3364 21.869C27.3363 21.869 27.3363 21.869 27.3362 21.869C27.336 21.8691 27.3358 21.8691 27.3355 21.8692C27.3349 21.8694 27.334 21.8696 27.3328 21.8699C27.3305 21.8705 27.3267 21.8714 27.3221 21.8726C27.313 21.8749 27.298 21.8788 27.2796 21.8837C27.261 21.8886 27.2372 21.8951 27.2097 21.903C27.1821 21.9109 27.1497 21.9204 27.1137 21.9317C27.0416 21.9543 26.9526 21.9844 26.8519 22.0237C26.7507 22.0633 26.6386 22.1118 26.5191 22.1716L30.0968 29.327ZM30.4317 29.1395L31.2016 28.6577L26.958 21.876L26.1881 22.3578L30.4317 29.1395ZM25.0798 25.2669V25.5484H33.0798V25.2669H25.0798ZM25.0798 25.5484C25.0798 29.7824 27.1115 33.7928 30.526 36.2973L35.2575 29.8465C33.8978 28.8492 33.0798 27.2345 33.0798 25.5484H25.0798ZM30.5262 36.2974L34.102 38.9199L38.8332 32.4689L35.2573 29.8463L30.5262 36.2974ZM36.4676 31.6944H24.1983V39.6944H36.4676V31.6944ZM20.1983 35.6944V35.6954H28.1983V35.6944H20.1983Z" fill="#535353" mask="url(#path-2-inside-1_28_225)"/>
<mask id="path-4-inside-2_28_225" fill="white">
<path d="M19.8592 18.2884V16.767C19.8592 15.7047 18.9948 14.8403 17.9321 14.8403C16.8698 14.8403 16.0054 15.7047 16.0054 16.767V18.2884C16.0054 19.3507 16.8698 20.2151 17.9321 20.2151C18.9948 20.2151 19.8592 19.3507 19.8592 18.2884ZM19.2006 18.2884C19.2006 18.9878 18.6315 19.5565 17.9321 19.5565C17.2327 19.5565 16.664 18.9875 16.664 18.2884V16.767C16.664 16.0676 17.233 15.4989 17.9321 15.4989C18.6312 15.4989 19.2006 16.068 19.2006 16.767V18.2884Z"/>
</mask>
<path d="M19.8592 18.2884V16.767C19.8592 15.7047 18.9948 14.8403 17.9321 14.8403C16.8698 14.8403 16.0054 15.7047 16.0054 16.767V18.2884C16.0054 19.3507 16.8698 20.2151 17.9321 20.2151C18.9948 20.2151 19.8592 19.3507 19.8592 18.2884ZM19.2006 18.2884C19.2006 18.9878 18.6315 19.5565 17.9321 19.5565C17.2327 19.5565 16.664 18.9875 16.664 18.2884V16.767C16.664 16.0676 17.233 15.4989 17.9321 15.4989C18.6312 15.4989 19.2006 16.068 19.2006 16.767V18.2884Z" fill="#535353"/>
<path d="M23.8592 18.2884V16.767H15.8592V18.2884H23.8592ZM23.8592 16.767C23.8592 13.4952 21.2035 10.8403 17.9321 10.8403V18.8403C16.7861 18.8403 15.8592 17.9143 15.8592 16.767H23.8592ZM17.9321 10.8403C14.6607 10.8403 12.0054 13.4956 12.0054 16.767H20.0054C20.0054 17.9139 19.0789 18.8403 17.9321 18.8403V10.8403ZM12.0054 16.767V18.2884H20.0054V16.767H12.0054ZM12.0054 18.2884C12.0054 21.5598 14.6607 24.2151 17.9321 24.2151V16.2151C19.0789 16.2151 20.0054 17.1416 20.0054 18.2884H12.0054ZM17.9321 24.2151C21.2035 24.2151 23.8592 21.5603 23.8592 18.2884H15.8592C15.8592 17.1411 16.7861 16.2151 17.9321 16.2151V24.2151ZM15.2006 18.2884C15.2006 16.7773 16.4238 15.5565 17.9321 15.5565V23.5565C20.8393 23.5565 23.2006 21.1983 23.2006 18.2884H15.2006ZM17.9321 15.5565C19.4425 15.5565 20.664 16.779 20.664 18.2884H12.664C12.664 21.196 15.0229 23.5565 17.9321 23.5565V15.5565ZM20.664 18.2884V16.767H12.664V18.2884H20.664ZM20.664 16.767C20.664 18.2774 19.4415 19.4989 17.9321 19.4989V11.4989C15.0246 11.4989 12.664 13.8578 12.664 16.767H20.664ZM17.9321 19.4989C16.4234 19.4989 15.2006 18.2784 15.2006 16.767H23.2006C23.2006 13.8575 20.839 11.4989 17.9321 11.4989V19.4989ZM15.2006 16.767V18.2884H23.2006V16.767H15.2006Z" fill="#535353" mask="url(#path-4-inside-2_28_225)"/>
<mask id="path-6-inside-3_28_225" fill="white">
<path d="M22.9904 14.84C21.9281 14.84 21.0637 15.7044 21.0637 16.7667V18.288C21.0637 19.3503 21.9281 20.2147 22.9908 20.2147C24.0531 20.2147 24.9175 19.3503 24.9175 18.288V16.7667C24.9175 15.7044 24.0531 14.84 22.9904 14.84ZM24.2589 18.2884C24.2589 18.9878 23.6899 19.5565 22.9908 19.5565C22.2913 19.5565 21.7226 18.9875 21.7226 18.2884V16.767C21.7226 16.0676 22.2917 15.4989 22.9911 15.4989C23.6905 15.4989 24.2592 16.0679 24.2592 16.767L24.2589 18.2884Z"/>
</mask>
<path d="M22.9904 14.84C21.9281 14.84 21.0637 15.7044 21.0637 16.7667V18.288C21.0637 19.3503 21.9281 20.2147 22.9908 20.2147C24.0531 20.2147 24.9175 19.3503 24.9175 18.288V16.7667C24.9175 15.7044 24.0531 14.84 22.9904 14.84ZM24.2589 18.2884C24.2589 18.9878 23.6899 19.5565 22.9908 19.5565C22.2913 19.5565 21.7226 18.9875 21.7226 18.2884V16.767C21.7226 16.0676 22.2917 15.4989 22.9911 15.4989C23.6905 15.4989 24.2592 16.0679 24.2592 16.767L24.2589 18.2884Z" fill="#535353"/>
<path d="M24.9175 16.7667H20.9175H24.9175ZM24.2589 18.2884L20.2589 18.2875V18.2884H24.2589ZM24.2592 16.767L28.2592 16.7679V16.767H24.2592ZM22.9904 10.84C19.719 10.84 17.0637 13.4952 17.0637 16.7667H25.0637C25.0637 17.9135 24.1373 18.84 22.9904 18.84V10.84ZM17.0637 16.7667V18.288H25.0637V16.7667H17.0637ZM17.0637 18.288C17.0637 21.5599 19.7194 24.2147 22.9908 24.2147V16.2147C24.1368 16.2147 25.0637 17.1408 25.0637 18.288H17.0637ZM22.9908 24.2147C26.2622 24.2147 28.9175 21.5595 28.9175 18.288H20.9175C20.9175 17.1412 21.8439 16.2147 22.9908 16.2147V24.2147ZM28.9175 18.288V16.7667H20.9175V18.288H28.9175ZM28.9175 16.7667C28.9175 13.4948 26.2618 10.84 22.9904 10.84V18.84C21.8444 18.84 20.9175 17.914 20.9175 16.7667H28.9175ZM20.2589 18.2884C20.2589 16.778 21.4814 15.5565 22.9908 15.5565V23.5565C25.8983 23.5565 28.2589 21.1976 28.2589 18.2884H20.2589ZM22.9908 15.5565C24.5012 15.5565 25.7226 16.779 25.7226 18.2884H17.7226C17.7226 21.1959 20.0815 23.5565 22.9908 23.5565V15.5565ZM25.7226 18.2884V16.767H17.7226V18.2884H25.7226ZM25.7226 16.767C25.7226 18.2781 24.4995 19.4989 22.9911 19.4989V11.4989C20.0839 11.4989 17.7226 13.8571 17.7226 16.767H25.7226ZM22.9911 19.4989C21.4807 19.4989 20.2592 18.2764 20.2592 16.767H28.2592C28.2592 13.8594 25.9003 11.4989 22.9911 11.4989V19.4989ZM20.2592 16.7661L20.2589 18.2875L28.2589 18.2892L28.2592 16.7679L20.2592 16.7661Z" fill="#535353" mask="url(#path-6-inside-3_28_225)"/>
<mask id="path-8-inside-4_28_225" fill="white">
<path d="M20.4614 21.5844C19.3991 21.5844 18.5347 22.4488 18.5347 23.5111V27.9829C18.5347 29.0456 19.3991 29.91 20.4614 29.91C21.5241 29.91 22.3885 29.0456 22.3885 27.9829V23.5111C22.3885 22.4488 21.5241 21.5844 20.4614 21.5844ZM21.7299 27.9832C21.7299 28.6827 21.1609 29.2517 20.4614 29.2517C19.762 29.2517 19.1933 28.6827 19.1933 27.9832V23.5114C19.1933 22.812 19.7623 22.2433 20.4614 22.2433C21.1605 22.2433 21.7299 22.8123 21.7299 23.5114V27.9832Z"/>
</mask>
<path d="M20.4614 21.5844C19.3991 21.5844 18.5347 22.4488 18.5347 23.5111V27.9829C18.5347 29.0456 19.3991 29.91 20.4614 29.91C21.5241 29.91 22.3885 29.0456 22.3885 27.9829V23.5111C22.3885 22.4488 21.5241 21.5844 20.4614 21.5844ZM21.7299 27.9832C21.7299 28.6827 21.1609 29.2517 20.4614 29.2517C19.762 29.2517 19.1933 28.6827 19.1933 27.9832V23.5114C19.1933 22.812 19.7623 22.2433 20.4614 22.2433C21.1605 22.2433 21.7299 22.8123 21.7299 23.5114V27.9832Z" fill="#535353"/>
<path d="M20.4614 17.5844C17.19 17.5844 14.5347 20.2396 14.5347 23.5111H22.5347C22.5347 24.6579 21.6083 25.5844 20.4614 25.5844V17.5844ZM14.5347 23.5111V27.9829H22.5347V23.5111H14.5347ZM14.5347 27.9829C14.5347 31.2542 17.1895 33.91 20.4614 33.91V25.91C21.6087 25.91 22.5347 26.8369 22.5347 27.9829H14.5347ZM20.4614 33.91C23.7332 33.91 26.3885 31.2547 26.3885 27.9829H18.3885C18.3885 26.8364 19.3149 25.91 20.4614 25.91V33.91ZM26.3885 27.9829V23.5111H18.3885V27.9829H26.3885ZM26.3885 23.5111C26.3885 20.2392 23.7328 17.5844 20.4614 17.5844V25.5844C19.3154 25.5844 18.3885 24.6583 18.3885 23.5111H26.3885ZM17.7299 27.9832C17.7299 26.4735 18.9517 25.2517 20.4614 25.2517V33.2517C23.37 33.2517 25.7299 30.8918 25.7299 27.9832H17.7299ZM20.4614 25.2517C21.9725 25.2517 23.1933 26.4749 23.1933 27.9832H15.1933C15.1933 30.8904 17.5515 33.2517 20.4614 33.2517V25.2517ZM23.1933 27.9832V23.5114H15.1933V27.9832H23.1933ZM23.1933 23.5114C23.1933 25.0218 21.9708 26.2433 20.4614 26.2433V18.2433C17.5539 18.2433 15.1933 20.6022 15.1933 23.5114H23.1933ZM20.4614 26.2433C18.9528 26.2433 17.7299 25.0228 17.7299 23.5114H25.7299C25.7299 20.6018 23.3683 18.2433 20.4614 18.2433V26.2433ZM17.7299 23.5114V27.9832H25.7299V23.5114H17.7299Z" fill="#535353" mask="url(#path-8-inside-4_28_225)"/>
</svg>
