<svg width="47" height="47" viewBox="0 0 47 47" fill="none" xmlns="http://www.w3.org/2000/svg">
<circle cx="23.5" cy="23.5" r="22.5" fill="white" stroke="#FCC26B" stroke-width="2"/>
<g clip-path="url(#clip0_28_254)">
<mask id="path-2-inside-1_28_254" fill="white">
<path d="M22.9832 37.6026C20.907 37.6026 20.0712 36.429 19.3995 35.4856C18.8337 34.691 18.3869 34.0637 17.3335 34.0004C16.2161 33.9333 15.6152 34.4084 14.9187 34.9577C14.2328 35.4994 13.455 36.1162 12.1856 36.0365C9.4458 35.7457 8.10161 33.8806 8.16714 30.4911L8.17274 30.2027L8.42696 30.0657C13.1425 27.5278 15.3386 23.0954 15.3386 16.1176C15.3386 11.8427 18.2143 8.36467 21.7497 8.36401H24.2167C27.7521 8.36434 30.6278 11.8424 30.6278 16.1173C30.6278 23.0954 32.8242 27.5274 37.5394 30.0653L37.7933 30.2023L37.7993 30.4908C37.8648 33.8802 36.5203 35.7454 33.8036 36.0345C32.5094 36.1132 31.7339 35.4991 31.0477 34.9574C30.3512 34.4078 29.7483 33.9339 28.6329 34.0001C27.5795 34.063 27.1327 34.6906 26.5673 35.4849C25.8955 36.4287 25.0594 37.6026 22.9832 37.6026ZM17.1263 33.0063C17.2126 33.0063 17.3012 33.0089 17.3921 33.0142C18.917 33.1051 19.601 34.065 20.2039 34.9123C20.8546 35.8257 21.4164 36.6147 22.9832 36.6147C24.5503 36.6147 25.1121 35.8257 25.7621 34.9123C26.3654 34.0656 27.0487 33.1057 28.5737 33.0145C30.0703 32.9259 30.913 33.5931 31.6595 34.1822C32.3118 34.6972 32.8285 35.1042 33.7216 35.0509C35.8054 34.8283 36.7992 33.4726 36.8137 30.7941C31.9213 28.0451 29.6399 23.3724 29.6399 16.1173C29.6399 12.3867 27.2064 9.35158 24.2151 9.35158H21.751C18.76 9.35158 16.3265 12.3867 16.3265 16.1173C16.3265 23.3717 14.0451 28.0451 9.15273 30.7937C9.16689 33.4722 10.1614 34.8283 12.2672 35.0525C13.1392 35.1036 13.6539 34.6972 14.3066 34.1819C15.008 33.629 15.7973 33.0063 17.1263 33.0063Z"/>
</mask>
<path d="M19.3995 35.4856L17.1104 37.1153L17.1104 37.1154L19.3995 35.4856ZM17.3335 34.0004L17.1648 36.8054L17.1651 36.8054L17.3335 34.0004ZM14.9187 34.9577L13.1786 32.7513L13.1772 32.7525L14.9187 34.9577ZM12.1856 36.0365L11.889 38.8308L11.9491 38.8372L12.0095 38.841L12.1856 36.0365ZM8.16714 30.4911L5.35767 30.4366L5.35767 30.4368L8.16714 30.4911ZM8.17274 30.2027L6.83975 27.7289L5.39511 28.5074L5.36327 30.1481L8.17274 30.2027ZM8.42696 30.0657L7.09524 27.5913L7.09397 27.592L8.42696 30.0657ZM21.7497 8.36401V5.55401H21.7491L21.7497 8.36401ZM24.2167 8.36401L24.217 5.55401H24.2167V8.36401ZM37.5394 30.0653L38.8738 27.5923L38.8712 27.591L37.5394 30.0653ZM37.7933 30.2023L40.6027 30.1446L40.5691 28.5071L39.1276 27.7293L37.7933 30.2023ZM37.7993 30.4908L40.6087 30.4365L40.6087 30.4331L37.7993 30.4908ZM33.8036 36.0345L33.9741 38.8393L34.0377 38.8355L34.1009 38.8287L33.8036 36.0345ZM31.0477 34.9574L32.7887 32.7517L32.7884 32.7515L31.0477 34.9574ZM28.6329 34.0001L28.4665 31.195L28.4655 31.1951L28.6329 34.0001ZM26.5673 35.4849L24.278 33.8553L24.278 33.8554L26.5673 35.4849ZM17.3921 33.0142L17.5592 30.2092L17.5547 30.2089L17.3921 33.0142ZM20.2039 34.9123L17.9145 36.5415L17.9152 36.5426L20.2039 34.9123ZM25.7621 34.9123L23.4737 33.2816L23.4726 33.283L25.7621 34.9123ZM28.5737 33.0145L28.4076 30.2094L28.4059 30.2095L28.5737 33.0145ZM31.6595 34.1822L33.4007 31.9767L33.4003 31.9763L31.6595 34.1822ZM33.7216 35.0509L33.8891 37.8559L33.9547 37.852L34.0201 37.845L33.7216 35.0509ZM36.8137 30.7941L39.6236 30.8093L39.6326 29.1548L38.1902 28.3443L36.8137 30.7941ZM9.15273 30.7937L7.77635 28.3439L6.33402 29.1542L6.34277 30.8086L9.15273 30.7937ZM12.2672 35.0525L11.9697 37.8467L12.0362 37.8538L12.103 37.8577L12.2672 35.0525ZM14.3066 34.1819L12.567 31.9751L12.5652 31.9765L14.3066 34.1819ZM22.9832 34.7926C22.7334 34.7926 22.5897 34.7581 22.5167 34.7342C22.4463 34.7111 22.3947 34.6827 22.3428 34.644C22.1952 34.5341 22.0514 34.3654 21.6885 33.8557L17.1104 37.1154C17.4193 37.5492 18.0292 38.439 18.9865 39.1517C20.0346 39.9321 21.3539 40.4126 22.9832 40.4126V34.7926ZM21.6885 33.8558C21.457 33.5305 20.9973 32.8556 20.3575 32.3178C19.5918 31.6741 18.6448 31.2641 17.5018 31.1955L17.1651 36.8054C17.1563 36.8049 17.0805 36.798 16.9711 36.7539C16.8606 36.7093 16.7811 36.6533 16.7411 36.6197C16.711 36.5944 16.7256 36.6001 16.7961 36.6879C16.8302 36.7303 16.8716 36.7845 16.9253 36.8577C16.9801 36.9325 17.0375 37.013 17.1104 37.1153L21.6885 33.8558ZM17.5021 31.1955C15.2421 31.0596 13.898 32.1839 13.1786 32.7513L16.6588 37.1641C16.8451 37.0172 16.9516 36.9341 17.0488 36.8657C17.1362 36.8043 17.1715 36.7873 17.1739 36.7861C17.1741 36.786 17.1676 36.7891 17.1557 36.7931C17.1435 36.7972 17.131 36.8004 17.1198 36.8026C17.0937 36.8077 17.1026 36.8016 17.1648 36.8054L17.5021 31.1955ZM13.1772 32.7525C12.9956 32.8958 12.8802 32.9862 12.7669 33.0657C12.6616 33.1395 12.5936 33.1781 12.549 33.1997C12.5084 33.2193 12.4865 33.2251 12.4739 33.2278C12.4626 33.2301 12.4297 33.2363 12.3616 33.232L12.0095 38.841C14.4438 38.9938 15.9808 37.6996 16.6603 37.163L13.1772 32.7525ZM12.4821 33.2422C11.733 33.1627 11.5111 32.9309 11.4008 32.7784C11.2238 32.5339 10.9502 31.9111 10.9766 30.5454L5.35767 30.4368C5.31854 32.4606 5.68425 34.4651 6.8479 36.0732C8.07824 37.7734 9.89836 38.6195 11.889 38.8308L12.4821 33.2422ZM10.9766 30.5456L10.9822 30.2572L5.36327 30.1481L5.35767 30.4366L10.9766 30.5456ZM9.50572 32.6764L9.75994 32.5394L7.09397 27.592L6.83975 27.7289L9.50572 32.6764ZM9.75867 32.5401C12.5952 31.0134 14.7551 28.8575 16.1689 26.0042C17.5589 23.1991 18.1486 19.8822 18.1486 16.1176H12.5286C12.5286 19.3309 12.0202 21.7191 11.1332 23.509C10.2702 25.2508 8.97424 26.58 7.09524 27.5913L9.75867 32.5401ZM18.1486 16.1176C18.1486 12.8714 20.2424 11.1743 21.7502 11.174L21.7491 5.55401C16.1862 5.55505 12.5286 10.814 12.5286 16.1176H18.1486ZM21.7497 11.174H24.2167V5.55401H21.7497V11.174ZM24.2165 11.174C25.724 11.1742 27.8178 12.8709 27.8178 16.1173H33.4378C33.4378 10.8138 29.7802 5.55453 24.217 5.55401L24.2165 11.174ZM27.8178 16.1173C27.8178 19.8821 28.4076 23.199 29.7976 26.0041C31.2115 28.8573 33.3714 31.0131 36.2077 32.5397L38.8712 27.591C36.9923 26.5797 35.6964 25.2505 34.8332 23.5087C33.9463 21.7189 33.4378 19.3307 33.4378 16.1173H27.8178ZM36.2051 32.5383L36.459 32.6753L39.1276 27.7293L38.8738 27.5923L36.2051 32.5383ZM34.9839 30.26L34.9898 30.5485L40.6087 30.4331L40.6027 30.1446L34.9839 30.26ZM34.9898 30.5451C35.0162 31.9103 34.7427 32.5359 34.5652 32.7822C34.4546 32.9356 34.2371 33.1625 33.5062 33.2403L34.1009 38.8287C36.0867 38.6174 37.8998 37.7672 39.1243 36.0683C40.2818 34.4624 40.6479 32.4607 40.6087 30.4365L34.9898 30.5451ZM33.633 33.2297C33.5523 33.2346 33.5104 33.2275 33.4934 33.224C33.4756 33.2203 33.4515 33.2134 33.4114 33.1942C33.2946 33.1383 33.163 33.0471 32.7887 32.7517L29.3066 37.163C30.0024 37.7123 31.5277 38.9881 33.9741 38.8393L33.633 33.2297ZM32.7884 32.7515C32.0645 32.1802 30.7211 31.0612 28.4665 31.195L28.7994 36.8052C28.8614 36.8015 28.8707 36.8075 28.8453 36.8026C28.8345 36.8005 28.8223 36.7973 28.8106 36.7933C28.799 36.7895 28.7928 36.7865 28.7933 36.7868C28.7962 36.7881 28.8317 36.8053 28.9188 36.8665C29.0154 36.9343 29.122 37.0173 29.307 37.1633L32.7884 32.7515ZM28.4655 31.1951C27.3219 31.2634 26.3746 31.6736 25.6088 32.3174C24.969 32.8553 24.5094 33.5304 24.278 33.8553L28.8565 37.1145C28.9293 37.0122 28.9867 36.9317 29.0415 36.8569C29.0952 36.7837 29.1365 36.7295 29.1706 36.6871C29.2411 36.5994 29.2556 36.5937 29.2254 36.6191C29.1854 36.6527 29.1058 36.7089 28.9951 36.7535C28.8854 36.7976 28.8094 36.8046 28.8004 36.8051L28.4655 31.1951ZM24.278 33.8554C23.9152 34.365 23.7712 34.534 23.6236 34.6439C23.5716 34.6826 23.52 34.7111 23.4496 34.7342C23.3766 34.7581 23.2329 34.7926 22.9832 34.7926V40.4126C24.6126 40.4126 25.9321 39.932 26.9802 39.1514C27.9376 38.4385 28.5475 37.5486 28.8566 37.1144L24.278 33.8554ZM17.1263 35.8163C17.1555 35.8163 17.1898 35.8172 17.2294 35.8195L17.5547 30.2089C17.4126 30.2007 17.2697 30.1963 17.1263 30.1963V35.8163ZM17.2249 35.8192C17.2745 35.8222 17.3051 35.8277 17.3204 35.831C17.3283 35.8328 17.3334 35.8343 17.3361 35.8351C17.3388 35.8359 17.34 35.8364 17.34 35.8364C17.34 35.8364 17.3397 35.8363 17.3393 35.8361C17.3389 35.8359 17.3391 35.836 17.3402 35.8366C17.3421 35.8378 17.3502 35.8428 17.3652 35.8551C17.3977 35.8817 17.4571 35.9374 17.5522 36.0533C17.6541 36.1775 17.7557 36.3184 17.9145 36.5415L22.4934 33.283C21.908 32.4603 20.534 30.3865 17.5592 30.2092L17.2249 35.8192ZM17.9152 36.5426C18.1897 36.9279 18.7378 37.7379 19.5702 38.3587C20.5294 39.0739 21.6686 39.4247 22.9832 39.4247V33.8047C22.8288 33.8047 22.7872 33.7856 22.8155 33.7944C22.8518 33.8057 22.8975 33.8293 22.9298 33.8534C22.9516 33.8697 22.929 33.8583 22.8513 33.7649C22.7627 33.6587 22.6675 33.5275 22.4926 33.2819L17.9152 36.5426ZM22.9832 39.4247C24.2977 39.4247 25.4372 39.0741 26.3965 38.3586C27.2293 37.7375 27.7771 36.9272 28.0516 36.5415L23.4726 33.283C23.2981 33.5284 23.203 33.6595 23.1147 33.7655C23.0371 33.8587 23.0147 33.8699 23.0367 33.8535C23.0691 33.8293 23.1149 33.8057 23.1512 33.7944C23.1795 33.7856 23.1377 33.8047 22.9832 33.8047V39.4247ZM28.0506 36.5429C28.2099 36.3194 28.3115 36.1785 28.4137 36.054C28.5089 35.938 28.5684 35.8821 28.601 35.8555C28.6161 35.8432 28.6242 35.8381 28.6261 35.837C28.6271 35.8363 28.6274 35.8362 28.627 35.8364C28.6266 35.8366 28.6263 35.8368 28.6263 35.8368C28.6263 35.8368 28.6275 35.8363 28.6302 35.8354C28.6329 35.8346 28.638 35.8331 28.6459 35.8314C28.6613 35.828 28.6919 35.8225 28.7414 35.8195L28.4059 30.2095C25.4315 30.3874 24.058 32.4615 23.4737 33.2816L28.0506 36.5429ZM28.7397 35.8196C29.0008 35.8042 29.1214 35.8494 29.2088 35.8902C29.361 35.9613 29.5166 36.0707 29.9188 36.3881L33.4003 31.9763C32.6012 31.3457 31.0283 30.0543 28.4076 30.2094L28.7397 35.8196ZM29.9183 36.3877C30.5266 36.868 31.8157 37.9797 33.8891 37.8559L33.554 32.2459C33.5647 32.2453 33.6164 32.2442 33.6921 32.2601C33.7677 32.276 33.8228 32.2994 33.8463 32.311C33.8623 32.319 33.8407 32.3103 33.7612 32.2537C33.7222 32.226 33.6749 32.1907 33.6135 32.1434C33.5508 32.0951 33.4846 32.0429 33.4007 31.9767L29.9183 36.3877ZM34.0201 37.845C35.6547 37.6704 37.2326 36.9847 38.3154 35.4973C39.3184 34.1195 39.6149 32.4296 39.6236 30.8093L34.0037 30.7789C33.998 31.837 33.7903 32.1642 33.7718 32.1896C33.7693 32.1932 33.7731 32.1875 33.7828 32.1792C33.7924 32.171 33.7968 32.1695 33.7889 32.1736C33.7724 32.1821 33.671 32.2303 33.4231 32.2568L34.0201 37.845ZM38.1902 28.3443C36.2098 27.2316 34.8329 25.7865 33.9169 23.9118C32.9791 21.9926 32.4499 19.4675 32.4499 16.1173H26.8299C26.8299 20.0222 27.4415 23.461 28.8675 26.3792C30.3152 29.3418 32.5252 31.6076 35.4372 33.2438L38.1902 28.3443ZM32.4499 16.1173C32.4499 11.4459 29.3059 6.54158 24.2151 6.54158V12.1616C25.1069 12.1616 26.8299 13.3275 26.8299 16.1173H32.4499ZM24.2151 6.54158H21.751V12.1616H24.2151V6.54158ZM21.751 6.54158C16.6604 6.54158 13.5165 11.446 13.5165 16.1173H19.1365C19.1365 13.3274 20.8596 12.1616 21.751 12.1616V6.54158ZM13.5165 16.1173C13.5165 19.4671 12.9873 21.9923 12.0495 23.9115C11.1334 25.7863 9.75655 27.2314 7.77635 28.3439L10.5291 33.2436C13.4413 31.6075 15.6512 29.3416 17.0989 26.3789C18.5249 23.4606 19.1365 20.0219 19.1365 16.1173H13.5165ZM6.34277 30.8086C6.35133 32.4289 6.64779 34.1226 7.65794 35.503C8.74724 36.9915 10.3322 37.6724 11.9697 37.8467L12.5648 32.2583C12.3082 32.231 12.2007 32.1813 12.1801 32.1707C12.1703 32.1656 12.1736 32.1662 12.1826 32.1739C12.1918 32.1818 12.1956 32.1872 12.1932 32.184C12.1761 32.1607 11.9683 31.8371 11.9627 30.7789L6.34277 30.8086ZM12.103 37.8577C14.1624 37.9783 15.4561 36.8546 16.0479 36.3873L12.5652 31.9765C12.4812 32.0428 12.4146 32.0954 12.3514 32.1441C12.2895 32.1918 12.2415 32.2276 12.2018 32.256C12.1206 32.314 12.0976 32.3237 12.1125 32.3163C12.1347 32.3052 12.1911 32.2805 12.2707 32.2634C12.3511 32.2461 12.4102 32.2461 12.4314 32.2473L12.103 37.8577ZM16.0461 36.3887C16.4225 36.092 16.5802 35.9786 16.7343 35.9018C16.8333 35.8525 16.9365 35.8163 17.1263 35.8163V30.1963C14.7523 30.1963 13.291 31.4044 12.567 31.9751L16.0461 36.3887Z" fill="#535353" mask="url(#path-2-inside-1_28_254)"/>
<mask id="path-4-inside-2_28_254" fill="white">
<path d="M20.8559 14.7988L21.5349 13.966C21.7072 13.7546 21.6755 13.4434 21.4645 13.2708C21.2527 13.0986 20.9422 13.1302 20.7693 13.3413L20.2184 14.017L19.6675 13.3413C19.4949 13.1299 19.1844 13.098 18.9723 13.2708C18.7609 13.4434 18.7293 13.7546 18.9019 13.966L19.5809 14.7988L18.9019 15.6316C18.7297 15.843 18.7613 16.1542 18.9723 16.3267C19.0642 16.4015 19.1745 16.4377 19.2842 16.4377C19.4274 16.4377 19.5697 16.3758 19.6675 16.2559L20.2184 15.5802L20.7693 16.2559C20.8671 16.3755 21.009 16.4377 21.1526 16.4377C21.2623 16.4377 21.3726 16.4015 21.4645 16.3267C21.6759 16.1542 21.7075 15.843 21.5349 15.6316L20.8559 14.7988Z"/>
</mask>
<path d="M20.8559 14.7988L21.5349 13.966C21.7072 13.7546 21.6755 13.4434 21.4645 13.2708C21.2527 13.0986 20.9422 13.1302 20.7693 13.3413L20.2184 14.017L19.6675 13.3413C19.4949 13.1299 19.1844 13.098 18.9723 13.2708C18.7609 13.4434 18.7293 13.7546 18.9019 13.966L19.5809 14.7988L18.9019 15.6316C18.7297 15.843 18.7613 16.1542 18.9723 16.3267C19.0642 16.4015 19.1745 16.4377 19.2842 16.4377C19.4274 16.4377 19.5697 16.3758 19.6675 16.2559L20.2184 15.5802L20.7693 16.2559C20.8671 16.3755 21.009 16.4377 21.1526 16.4377C21.2623 16.4377 21.3726 16.4015 21.4645 16.3267C21.6759 16.1542 21.7075 15.843 21.5349 15.6316L20.8559 14.7988Z" fill="#535353"/>
<path d="M20.8559 14.7988L18.6781 13.0231L17.2303 14.7988L18.6781 16.5745L20.8559 14.7988ZM21.5349 13.966L23.7128 15.7417L23.7135 15.7408L21.5349 13.966ZM21.4645 13.2708L23.2429 11.0953L23.2376 11.0909L21.4645 13.2708ZM20.7693 13.3413L18.5954 11.5608L18.5914 11.5657L20.7693 13.3413ZM20.2184 14.017L18.0405 15.7927L20.2184 18.4639L22.3963 15.7927L20.2184 14.017ZM19.6675 13.3413L21.8454 11.5657L21.8444 11.5645L19.6675 13.3413ZM18.9723 13.2708L17.1968 11.0929L17.1955 11.0939L18.9723 13.2708ZM18.9019 13.966L21.0797 12.1903L21.0788 12.1892L18.9019 13.966ZM19.5809 14.7988L21.7587 16.5745L23.2065 14.7988L21.7587 13.0231L19.5809 14.7988ZM18.9019 15.6316L16.724 13.8559L16.7233 13.8568L18.9019 15.6316ZM18.9723 16.3267L17.1939 18.5023L17.1989 18.5064L18.9723 16.3267ZM19.6675 16.2559L21.8447 18.0324L21.8454 18.0316L19.6675 16.2559ZM20.2184 15.5802L22.3963 13.8046L20.2184 11.1333L18.0405 13.8046L20.2184 15.5802ZM20.7693 16.2559L18.5914 18.0316L18.5945 18.0353L20.7693 16.2559ZM21.4645 16.3267L23.2379 18.5064L23.2413 18.5037L21.4645 16.3267ZM21.5349 15.6316L19.3571 17.4073L19.358 17.4084L21.5349 15.6316ZM23.0338 16.5745L23.7128 15.7417L19.3571 12.1903L18.6781 13.0231L23.0338 16.5745ZM23.7135 15.7408C24.8653 14.327 24.6535 12.2484 23.2429 11.0953L19.686 15.4464C18.6976 14.6384 18.5491 13.1822 19.3563 12.1912L23.7135 15.7408ZM23.2376 11.0909C21.8235 9.94075 19.7483 10.1532 18.5954 11.5608L22.9432 15.1218C22.1361 16.1072 20.6819 16.2565 19.6913 15.4508L23.2376 11.0909ZM18.5914 11.5657L18.0405 12.2414L22.3963 15.7927L22.9472 15.117L18.5914 11.5657ZM22.3963 12.2414L21.8454 11.5657L17.4896 15.117L18.0405 15.7927L22.3963 12.2414ZM21.8444 11.5645C20.6921 10.1527 18.6126 9.93869 17.1968 11.0929L20.7479 15.4488C19.7562 16.2572 18.2978 16.1071 17.4906 15.1181L21.8444 11.5645ZM17.1955 11.0939C15.7828 12.247 15.5703 14.3281 16.7249 15.7428L21.0788 12.1892C21.8884 13.181 21.7391 14.6398 20.7492 15.4478L17.1955 11.0939ZM16.724 15.7417L17.403 16.5745L21.7587 13.0231L21.0797 12.1903L16.724 15.7417ZM17.403 13.0231L16.724 13.8559L21.0797 17.4073L21.7587 16.5745L17.403 13.0231ZM16.7233 13.8568C15.5716 15.2706 15.7833 17.3492 17.1939 18.5023L20.7508 14.1511C21.7392 14.9591 21.8878 16.4154 21.0805 17.4064L16.7233 13.8568ZM17.1989 18.5064C17.8103 19.0038 18.5526 19.2477 19.2842 19.2477V13.6277C19.7965 13.6277 20.3182 13.7991 20.7458 14.147L17.1989 18.5064ZM19.2842 19.2477C20.2337 19.2477 21.1897 18.8351 21.8447 18.0324L17.4903 14.4795C17.9496 13.9165 18.6212 13.6277 19.2842 13.6277V19.2477ZM21.8454 18.0316L22.3963 17.3558L18.0405 13.8046L17.4896 14.4803L21.8454 18.0316ZM18.0405 17.3558L18.5914 18.0316L22.9472 14.4803L22.3963 13.8046L18.0405 17.3558ZM18.5945 18.0353C19.2459 18.8314 20.1981 19.2477 21.1526 19.2477V13.6277C21.82 13.6277 22.4884 13.9195 22.9441 14.4765L18.5945 18.0353ZM21.1526 19.2477C21.8842 19.2477 22.6266 19.0038 23.2379 18.5064L19.691 14.147C20.1186 13.7991 20.6403 13.6277 21.1526 13.6277V19.2477ZM23.2413 18.5037C24.654 17.3506 24.8665 15.2694 23.7119 13.8548L19.358 17.4084C18.5485 16.4165 18.6977 14.9578 19.6877 14.1498L23.2413 18.5037ZM23.7128 13.8559L23.0338 13.0231L18.6781 16.5745L19.3571 17.4073L23.7128 13.8559Z" fill="#535353" mask="url(#path-4-inside-2_28_254)"/>
<mask id="path-6-inside-3_28_254" fill="white">
<path d="M26.4536 14.7988L27.133 13.966C27.3052 13.7546 27.2739 13.4434 27.0625 13.2712C26.8508 13.0987 26.5396 13.1306 26.3677 13.342L25.8168 14.0177L25.2659 13.342C25.0936 13.1306 24.7821 13.0983 24.5711 13.2712C24.3596 13.4434 24.3284 13.7549 24.5006 13.966L25.1799 14.7988L24.5006 15.6316C24.3284 15.843 24.3596 16.1542 24.5711 16.3264C24.6626 16.4012 24.7732 16.4374 24.8829 16.4374C25.0265 16.4374 25.1684 16.3755 25.2659 16.2556L25.8168 15.5799L26.3677 16.2556C26.4652 16.3755 26.6074 16.4374 26.7507 16.4374C26.8603 16.4374 26.971 16.4012 27.0625 16.3264C27.2739 16.1542 27.3052 15.8427 27.133 15.6316L26.4536 14.7988Z"/>
</mask>
<path d="M26.4536 14.7988L27.133 13.966C27.3052 13.7546 27.2739 13.4434 27.0625 13.2712C26.8508 13.0987 26.5396 13.1306 26.3677 13.342L25.8168 14.0177L25.2659 13.342C25.0936 13.1306 24.7821 13.0983 24.5711 13.2712C24.3596 13.4434 24.3284 13.7549 24.5006 13.966L25.1799 14.7988L24.5006 15.6316C24.3284 15.843 24.3596 16.1542 24.5711 16.3264C24.6626 16.4012 24.7732 16.4374 24.8829 16.4374C25.0265 16.4374 25.1684 16.3755 25.2659 16.2556L25.8168 15.5799L26.3677 16.2556C26.4652 16.3755 26.6074 16.4374 26.7507 16.4374C26.8603 16.4374 26.971 16.4012 27.0625 16.3264C27.2739 16.1542 27.3052 15.8427 27.133 15.6316L26.4536 14.7988Z" fill="#535353"/>
<path d="M26.4536 14.7988L24.2762 13.0226L22.8273 14.7988L24.2762 16.575L26.4536 14.7988ZM27.133 13.966L29.3104 15.7422L29.3116 15.7408L27.133 13.966ZM27.0625 13.2712L25.2874 15.4495L25.2877 15.4498L27.0625 13.2712ZM26.3677 13.342L28.5456 15.1176L28.548 15.1147L26.3677 13.342ZM25.8168 14.0177L23.6389 15.7934L25.8168 18.4646L27.9947 15.7934L25.8168 14.0177ZM25.2659 13.342L23.0873 15.1168L23.088 15.1176L25.2659 13.342ZM24.5711 13.2712L26.3458 15.4498L26.3516 15.4451L24.5711 13.2712ZM24.5006 13.966L26.678 12.1898L26.6778 12.1896L24.5006 13.966ZM25.1799 14.7988L27.3574 16.575L28.8063 14.7988L27.3574 13.0226L25.1799 14.7988ZM24.5006 15.6316L22.3232 13.8554L22.322 13.8568L24.5006 15.6316ZM24.5711 16.3264L26.3483 14.1499L26.3458 14.1478L24.5711 16.3264ZM25.2659 16.2556L23.088 14.48L23.0857 14.4828L25.2659 16.2556ZM25.8168 15.5799L27.9947 13.8043L25.8168 11.133L23.6389 13.8043L25.8168 15.5799ZM26.3677 16.2556L28.5478 14.4828L28.5456 14.48L26.3677 16.2556ZM27.0625 16.3264L25.2877 14.1478L25.2852 14.1499L27.0625 16.3264ZM27.133 15.6316L24.9556 17.4078L24.9557 17.408L27.133 15.6316ZM28.6311 16.575L29.3104 15.7422L24.9556 12.1898L24.2762 13.0226L28.6311 16.575ZM29.3116 15.7408C30.4607 14.3303 30.256 12.2483 28.8373 11.0926L25.2877 15.4498C24.2919 14.6385 24.1497 13.179 24.9544 12.1912L29.3116 15.7408ZM28.8377 11.0929C27.4236 9.94055 25.3405 10.1512 24.1874 11.5693L28.548 15.1147C27.7387 16.11 26.278 16.2568 25.2874 15.4495L28.8377 11.0929ZM24.1898 11.5664L23.6389 12.2421L27.9947 15.7934L28.5456 15.1176L24.1898 11.5664ZM27.9947 12.2421L27.4438 11.5664L23.088 15.1176L23.6389 15.7934L27.9947 12.2421ZM27.4445 11.5672C26.2956 10.1569 24.211 9.93389 22.7905 11.0973L26.3516 15.4451C25.3533 16.2628 23.8917 16.1043 23.0873 15.1168L27.4445 11.5672ZM22.7963 11.0926C21.3784 12.2477 21.1717 14.3309 22.3233 15.7425L26.6778 12.1896C27.4851 13.179 27.3409 14.6392 26.3458 15.4498L22.7963 11.0926ZM22.3232 15.7422L23.0025 16.575L27.3574 13.0226L26.678 12.1898L22.3232 15.7422ZM23.0025 13.0226L22.3232 13.8554L26.678 17.4078L27.3574 16.575L23.0025 13.0226ZM22.322 13.8568C21.1729 15.2674 21.3776 17.3493 22.7963 18.505L26.3458 14.1478C27.3417 14.9591 27.4838 16.4187 26.6792 17.4064L22.322 13.8568ZM22.7938 18.503C23.4088 19.0052 24.1541 19.2474 24.8829 19.2474V13.6274C25.3923 13.6274 25.9164 13.7972 26.3483 14.1499L22.7938 18.503ZM24.8829 19.2474C25.8329 19.2474 26.7906 18.8345 27.446 18.0285L23.0857 14.4828C23.5462 13.9165 24.2201 13.6274 24.8829 13.6274V19.2474ZM27.4438 18.0313L27.9947 17.3555L23.6389 13.8043L23.088 14.48L27.4438 18.0313ZM23.6389 17.3555L24.1898 18.0313L28.5456 14.48L27.9947 13.8043L23.6389 17.3555ZM24.1876 18.0285C24.8436 18.8353 25.8021 19.2474 26.7507 19.2474V13.6274C27.4128 13.6274 28.0867 13.9157 28.5478 14.4828L24.1876 18.0285ZM26.7507 19.2474C27.4794 19.2474 28.2248 19.0051 28.8398 18.503L25.2852 14.1499C25.7171 13.7972 26.2412 13.6274 26.7507 13.6274V19.2474ZM28.8373 18.505C30.2552 17.3499 30.4619 15.2667 29.3102 13.8552L24.9557 17.408C24.1485 16.4186 24.2927 14.9585 25.2877 14.1478L28.8373 18.505ZM29.3104 13.8554L28.6311 13.0226L24.2762 16.575L24.9556 17.4078L29.3104 13.8554Z" fill="#535353" mask="url(#path-6-inside-3_28_254)"/>
<path d="M26.6832 18.4503H19.2832C19.0102 18.4503 18.7893 18.6713 18.7893 18.9443C18.7893 19.2172 19.0102 19.4382 19.2832 19.4382H21.4181V20.4241C21.4181 21.6382 22.4059 22.6261 23.6197 22.6261C24.8335 22.6261 25.8217 21.6382 25.8217 20.4241V19.4382H26.6832C26.9558 19.4382 27.1771 19.2172 27.1771 18.9443C27.1771 18.6713 26.9558 18.4503 26.6832 18.4503ZM24.8338 20.4241C24.8338 21.0936 24.2895 21.6382 23.6197 21.6382C22.9503 21.6382 22.4059 21.0936 22.4059 20.4241V19.4382H24.8338V20.4241Z" fill="#535353"/>
</g>
<defs>
<clipPath id="clip0_28_254">
<rect width="30" height="30" fill="white" transform="translate(8 8)"/>
</clipPath>
</defs>
</svg>
