<svg width="47" height="47" viewBox="0 0 47 47" fill="none" xmlns="http://www.w3.org/2000/svg">
<circle cx="23.5" cy="23.5" r="22.5" fill="white" stroke="#FCC26B" stroke-width="2"/>
<mask id="path-2-inside-1_28_242" fill="white">
<path d="M22.9832 8.16479C16.5691 8.16479 11.3511 13.3828 11.3511 19.7969V35.2116C11.3511 36.6398 12.5129 37.8015 13.941 37.8015C15.3692 37.8015 16.5309 36.6398 16.5309 35.2116V33.9389C16.5309 32.8739 17.3973 32.0075 18.4623 32.0075C19.5272 32.0075 20.3936 32.8739 20.3936 33.9389V35.2116C20.3933 36.6398 21.5554 37.8015 22.9832 37.8015C24.4113 37.8015 25.5731 36.6398 25.5731 35.2116V33.9389C25.5731 32.8739 26.4395 32.0075 27.5041 32.0075C28.569 32.0075 29.4354 32.8739 29.4354 33.9389V35.2116C29.4354 36.6398 30.5972 37.8015 32.0253 37.8015C33.4532 37.8015 34.6149 36.6398 34.6149 35.2116V19.7969C34.6153 13.3828 29.3972 8.16479 22.9832 8.16479ZM33.9567 35.2116C33.9567 36.2765 33.0903 37.1429 32.0257 37.1429C30.9607 37.1429 30.0944 36.2765 30.0944 35.2116V33.9389C30.0944 32.5107 28.9326 31.3489 27.5044 31.3489C26.0766 31.3489 24.9148 32.5107 24.9148 33.9389V35.2116C24.9145 36.2765 24.0481 37.1429 22.9832 37.1429C21.9182 37.1429 21.0519 36.2765 21.0519 35.2116V33.9389C21.0519 32.5107 19.8901 31.3489 18.4619 31.3489C17.0341 31.3489 15.872 32.5107 15.872 33.9389V35.2116C15.872 36.2765 15.0056 37.1429 13.9407 37.1429C12.8757 37.1429 12.0094 36.2765 12.0094 35.2116V19.7969C12.0097 13.746 16.9324 8.82339 22.9832 8.82339C29.034 8.82339 33.9567 13.746 33.9567 19.7969V35.2116Z"/>
</mask>
<path d="M22.9832 8.16479C16.5691 8.16479 11.3511 13.3828 11.3511 19.7969V35.2116C11.3511 36.6398 12.5129 37.8015 13.941 37.8015C15.3692 37.8015 16.5309 36.6398 16.5309 35.2116V33.9389C16.5309 32.8739 17.3973 32.0075 18.4623 32.0075C19.5272 32.0075 20.3936 32.8739 20.3936 33.9389V35.2116C20.3933 36.6398 21.5554 37.8015 22.9832 37.8015C24.4113 37.8015 25.5731 36.6398 25.5731 35.2116V33.9389C25.5731 32.8739 26.4395 32.0075 27.5041 32.0075C28.569 32.0075 29.4354 32.8739 29.4354 33.9389V35.2116C29.4354 36.6398 30.5972 37.8015 32.0253 37.8015C33.4532 37.8015 34.6149 36.6398 34.6149 35.2116V19.7969C34.6153 13.3828 29.3972 8.16479 22.9832 8.16479ZM33.9567 35.2116C33.9567 36.2765 33.0903 37.1429 32.0257 37.1429C30.9607 37.1429 30.0944 36.2765 30.0944 35.2116V33.9389C30.0944 32.5107 28.9326 31.3489 27.5044 31.3489C26.0766 31.3489 24.9148 32.5107 24.9148 33.9389V35.2116C24.9145 36.2765 24.0481 37.1429 22.9832 37.1429C21.9182 37.1429 21.0519 36.2765 21.0519 35.2116V33.9389C21.0519 32.5107 19.8901 31.3489 18.4619 31.3489C17.0341 31.3489 15.872 32.5107 15.872 33.9389V35.2116C15.872 36.2765 15.0056 37.1429 13.9407 37.1429C12.8757 37.1429 12.0094 36.2765 12.0094 35.2116V19.7969C12.0097 13.746 16.9324 8.82339 22.9832 8.82339C29.034 8.82339 33.9567 13.746 33.9567 19.7969V35.2116Z" fill="#535353"/>
<path d="M20.3936 35.2116L23.2036 35.2122V35.2116H20.3936ZM34.6149 19.7969L31.8049 19.7967V19.7969H34.6149ZM24.9148 35.2116L27.7248 35.2125V35.2116H24.9148ZM12.0094 19.7969L9.19937 19.7967V19.7969H12.0094ZM22.9832 5.35479C15.0172 5.35479 8.5411 11.8309 8.5411 19.7969H14.1611C14.1611 14.9348 18.1211 10.9748 22.9832 10.9748V5.35479ZM8.5411 19.7969V35.2116H14.1611V19.7969H8.5411ZM8.5411 35.2116C8.5411 38.1917 10.9609 40.6115 13.941 40.6115V34.9915C14.0648 34.9915 14.1611 35.0878 14.1611 35.2116H8.5411ZM13.941 40.6115C16.9211 40.6115 19.3409 38.1917 19.3409 35.2116H13.7209C13.7209 35.0878 13.8173 34.9915 13.941 34.9915V40.6115ZM19.3409 35.2116V33.9389H13.7209V35.2116H19.3409ZM19.3409 33.9389C19.3409 34.4258 18.9492 34.8175 18.4623 34.8175V29.1975C15.8454 29.1975 13.7209 31.322 13.7209 33.9389H19.3409ZM18.4623 34.8175C17.9753 34.8175 17.5836 34.4258 17.5836 33.9389H23.2036C23.2036 31.322 21.0791 29.1975 18.4623 29.1975V34.8175ZM17.5836 33.9389V35.2116H23.2036V33.9389H17.5836ZM17.5836 35.2109C17.5829 38.1919 20.0038 40.6115 22.9832 40.6115V34.9915C23.1069 34.9915 23.2036 35.0876 23.2036 35.2122L17.5836 35.2109ZM22.9832 40.6115C25.9633 40.6115 28.3831 38.1917 28.3831 35.2116H22.7631C22.7631 35.0878 22.8594 34.9915 22.9832 34.9915V40.6115ZM28.3831 35.2116V33.9389H22.7631V35.2116H28.3831ZM28.3831 33.9389C28.3831 34.4255 27.9917 34.8175 27.5041 34.8175V29.1975C24.8873 29.1975 22.7631 31.3223 22.7631 33.9389H28.3831ZM27.5041 34.8175C27.0171 34.8175 26.6254 34.4258 26.6254 33.9389H32.2454C32.2454 31.322 30.121 29.1975 27.5041 29.1975V34.8175ZM26.6254 33.9389V35.2116H32.2454V33.9389H26.6254ZM26.6254 35.2116C26.6254 38.1917 29.0453 40.6115 32.0253 40.6115V34.9915C32.1491 34.9915 32.2454 35.0878 32.2454 35.2116H26.6254ZM32.0253 40.6115C35.0053 40.6115 37.4249 38.1914 37.4249 35.2116H31.8049C31.8049 35.0881 31.901 34.9915 32.0253 34.9915V40.6115ZM37.4249 35.2116V19.7969H31.8049V35.2116H37.4249ZM37.4249 19.797C37.4253 11.8309 30.9491 5.35479 22.9832 5.35479V10.9748C27.8453 10.9748 31.8052 14.9347 31.8049 19.7967L37.4249 19.797ZM31.1467 35.2116C31.1467 34.7249 31.5381 34.3329 32.0257 34.3329V39.9529C34.6425 39.9529 36.7667 37.8281 36.7667 35.2116H31.1467ZM32.0257 34.3329C32.5127 34.3329 32.9044 34.7246 32.9044 35.2116H27.2844C27.2844 37.8285 29.4088 39.9529 32.0257 39.9529V34.3329ZM32.9044 35.2116V33.9389H27.2844V35.2116H32.9044ZM32.9044 33.9389C32.9044 30.9588 30.4845 28.5389 27.5044 28.5389V34.1589C27.3807 34.1589 27.2844 34.0626 27.2844 33.9389H32.9044ZM27.5044 28.5389C24.5244 28.5389 22.1048 30.959 22.1048 33.9389H27.7248C27.7248 34.0624 27.6288 34.1589 27.5044 34.1589V28.5389ZM22.1048 33.9389V35.2116H27.7248V33.9389H22.1048ZM22.1048 35.2107C22.105 34.7246 22.496 34.3329 22.9832 34.3329V39.9529C25.6002 39.9529 27.724 37.8285 27.7248 35.2125L22.1048 35.2107ZM22.9832 34.3329C23.4702 34.3329 23.8619 34.7246 23.8619 35.2116H18.2419C18.2419 37.8285 20.3663 39.9529 22.9832 39.9529V34.3329ZM23.8619 35.2116V33.9389H18.2419V35.2116H23.8619ZM23.8619 33.9389C23.8619 30.9588 21.442 28.5389 18.4619 28.5389V34.1589C18.3382 34.1589 18.2419 34.0626 18.2419 33.9389H23.8619ZM18.4619 28.5389C15.4824 28.5389 13.062 30.9585 13.062 33.9389H18.682C18.682 34.0629 18.5858 34.1589 18.4619 34.1589V28.5389ZM13.062 33.9389V35.2116H18.682V33.9389H13.062ZM13.062 35.2116C13.062 34.7246 13.4537 34.3329 13.9407 34.3329V39.9529C16.5576 39.9529 18.682 37.8285 18.682 35.2116H13.062ZM13.9407 34.3329C14.4277 34.3329 14.8194 34.7246 14.8194 35.2116H9.19937C9.19937 37.8285 11.3238 39.9529 13.9407 39.9529V34.3329ZM14.8194 35.2116V19.7969H9.19937V35.2116H14.8194ZM14.8194 19.797C14.8196 15.298 18.4843 11.6334 22.9832 11.6334V6.01339C15.3804 6.01339 9.19978 12.1941 9.19937 19.7967L14.8194 19.797ZM22.9832 11.6334C27.4821 11.6334 31.1467 15.298 31.1467 19.7969H36.7667C36.7667 12.1941 30.5859 6.01339 22.9832 6.01339V11.6334ZM31.1467 19.7969V35.2116H36.7667V19.7969H31.1467Z" fill="#535353" mask="url(#path-2-inside-1_28_242)"/>
<mask id="path-4-inside-2_28_242" fill="white">
<path d="M18.373 15.8779C16.1154 15.8779 14.2786 17.7147 14.2786 19.9724C14.2786 22.2301 16.1154 24.0669 18.373 24.0669C20.6307 24.0669 22.4675 22.2301 22.4675 19.9724C22.4675 17.7147 20.6307 15.8779 18.373 15.8779ZM19.9263 22.259C19.2957 22.259 18.783 21.746 18.783 21.1157C18.783 20.4855 19.2961 19.9724 19.9263 19.9724C20.5566 19.9724 21.0697 20.4855 21.0697 21.1157C21.0697 21.746 20.5566 22.259 19.9263 22.259ZM21.7006 20.8124C21.5557 19.9632 20.8164 19.3138 19.9263 19.3138C18.9325 19.3138 18.1244 20.1222 18.1244 21.1157C18.1244 22.1092 18.9328 22.9176 19.9263 22.9176C20.006 22.9176 20.0841 22.9107 20.1615 22.9005C19.6398 23.2203 19.0287 23.4083 18.3734 23.4083C16.4789 23.4083 14.9375 21.8669 14.9375 19.9724C14.9375 18.078 16.4789 16.5365 18.3734 16.5365C20.2678 16.5365 21.8093 18.078 21.8093 19.9724C21.8089 20.2625 21.7688 20.5431 21.7006 20.8124Z"/>
</mask>
<path d="M18.373 15.8779C16.1154 15.8779 14.2786 17.7147 14.2786 19.9724C14.2786 22.2301 16.1154 24.0669 18.373 24.0669C20.6307 24.0669 22.4675 22.2301 22.4675 19.9724C22.4675 17.7147 20.6307 15.8779 18.373 15.8779ZM19.9263 22.259C19.2957 22.259 18.783 21.746 18.783 21.1157C18.783 20.4855 19.2961 19.9724 19.9263 19.9724C20.5566 19.9724 21.0697 20.4855 21.0697 21.1157C21.0697 21.746 20.5566 22.259 19.9263 22.259ZM21.7006 20.8124C21.5557 19.9632 20.8164 19.3138 19.9263 19.3138C18.9325 19.3138 18.1244 20.1222 18.1244 21.1157C18.1244 22.1092 18.9328 22.9176 19.9263 22.9176C20.006 22.9176 20.0841 22.9107 20.1615 22.9005C19.6398 23.2203 19.0287 23.4083 18.3734 23.4083C16.4789 23.4083 14.9375 21.8669 14.9375 19.9724C14.9375 18.078 16.4789 16.5365 18.3734 16.5365C20.2678 16.5365 21.8093 18.078 21.8093 19.9724C21.8089 20.2625 21.7688 20.5431 21.7006 20.8124Z" fill="#535353"/>
<path d="M21.7006 20.8124L18.9306 21.285L24.4247 21.5018L21.7006 20.8124ZM20.1615 22.9005L21.63 25.2962L19.794 20.1146L20.1615 22.9005ZM21.8093 19.9724L24.6193 19.9756V19.9724H21.8093ZM18.373 13.0679C14.5635 13.0679 11.4686 16.1628 11.4686 19.9724H17.0886C17.0886 19.2667 17.6673 18.6879 18.373 18.6879V13.0679ZM11.4686 19.9724C11.4686 23.782 14.5635 26.8769 18.373 26.8769V21.2569C17.6673 21.2569 17.0886 20.6781 17.0886 19.9724H11.4686ZM18.373 26.8769C22.1826 26.8769 25.2775 23.782 25.2775 19.9724H19.6575C19.6575 20.6781 19.0788 21.2569 18.373 21.2569V26.8769ZM25.2775 19.9724C25.2775 16.1628 22.1826 13.0679 18.373 13.0679V18.6879C19.0788 18.6879 19.6575 19.2667 19.6575 19.9724H25.2775ZM19.9263 19.449C20.8482 19.449 21.593 20.1946 21.593 21.1157H15.973C15.973 23.2974 17.7433 25.069 19.9263 25.069V19.449ZM21.593 21.1157C21.593 22.0374 20.848 22.7824 19.9263 22.7824V17.1624C17.7441 17.1624 15.973 18.9335 15.973 21.1157H21.593ZM19.9263 22.7824C19.0047 22.7824 18.2597 22.0374 18.2597 21.1157H23.8797C23.8797 18.9335 22.1085 17.1624 19.9263 17.1624V22.7824ZM18.2597 21.1157C18.2597 20.1941 19.0047 19.449 19.9263 19.449V25.069C22.1085 25.069 23.8797 23.2979 23.8797 21.1157H18.2597ZM24.4706 20.3399C24.1005 18.1708 22.2165 16.5038 19.9263 16.5038V22.1238C19.4164 22.1238 19.0109 21.7556 18.9306 21.285L24.4706 20.3399ZM19.9263 16.5038C17.3803 16.5038 15.3144 18.5707 15.3144 21.1157H20.9344C20.9344 21.6738 20.4848 22.1238 19.9263 22.1238V16.5038ZM15.3144 21.1157C15.3144 23.6611 17.3809 25.7276 19.9263 25.7276V20.1076C20.4848 20.1076 20.9344 20.5573 20.9344 21.1157H15.3144ZM19.9263 25.7276C20.1669 25.7276 20.3742 25.7068 20.5289 25.6864L19.794 20.1146C19.7947 20.1146 19.8077 20.1128 19.8297 20.1111C19.852 20.1094 19.885 20.1076 19.9263 20.1076V25.7276ZM18.6929 20.5048C18.5887 20.5687 18.4822 20.5983 18.3734 20.5983V26.2183C19.5751 26.2183 20.691 25.8718 21.63 25.2962L18.6929 20.5048ZM18.3734 20.5983C18.0308 20.5983 17.7475 20.3149 17.7475 19.9724H12.1275C12.1275 23.4188 14.927 26.2183 18.3734 26.2183V20.5983ZM17.7475 19.9724C17.7475 19.6299 18.0308 19.3465 18.3734 19.3465V13.7265C14.927 13.7265 12.1275 16.526 12.1275 19.9724H17.7475ZM18.3734 19.3465C18.7159 19.3465 18.9993 19.6299 18.9993 19.9724H24.6193C24.6193 16.526 21.8197 13.7265 18.3734 13.7265V19.3465ZM18.9993 19.9692C18.9992 20.0003 18.9951 20.0495 18.9765 20.1231L24.4247 21.5018C24.5424 21.0366 24.6186 20.5248 24.6193 19.9756L18.9993 19.9692Z" fill="#535353" mask="url(#path-4-inside-2_28_242)"/>
<mask id="path-6-inside-3_28_242" fill="white">
<path d="M27.5933 15.8779C25.336 15.8779 23.4989 17.7147 23.4989 19.9724C23.4989 22.2301 25.336 24.0669 27.5933 24.0669C29.8507 24.0669 31.6878 22.2301 31.6878 19.9724C31.6878 17.7147 29.8507 15.8779 27.5933 15.8779ZM29.1466 22.259C28.5164 22.259 28.0033 21.746 28.0033 21.1157C28.0033 20.4855 28.5164 19.9724 29.1466 19.9724C29.7769 19.9724 30.29 20.4855 30.29 21.1157C30.29 21.746 29.7769 22.259 29.1466 22.259ZM30.9209 20.8128C30.776 19.9632 30.0367 19.3138 29.1466 19.3138C28.1528 19.3138 27.3447 20.1222 27.3447 21.1157C27.3447 22.1092 28.1528 22.9176 29.1466 22.9176C29.2263 22.9176 29.3044 22.9107 29.3818 22.9005C28.8602 23.2203 28.249 23.4083 27.5937 23.4083C25.6992 23.4083 24.1578 21.8669 24.1578 19.9724C24.1578 18.078 25.6992 16.5365 27.5937 16.5365C29.4881 16.5365 31.0296 18.078 31.0296 19.9724C31.0292 20.2628 30.9891 20.5431 30.9209 20.8128Z"/>
</mask>
<path d="M27.5933 15.8779C25.336 15.8779 23.4989 17.7147 23.4989 19.9724C23.4989 22.2301 25.336 24.0669 27.5933 24.0669C29.8507 24.0669 31.6878 22.2301 31.6878 19.9724C31.6878 17.7147 29.8507 15.8779 27.5933 15.8779ZM29.1466 22.259C28.5164 22.259 28.0033 21.746 28.0033 21.1157C28.0033 20.4855 28.5164 19.9724 29.1466 19.9724C29.7769 19.9724 30.29 20.4855 30.29 21.1157C30.29 21.746 29.7769 22.259 29.1466 22.259ZM30.9209 20.8128C30.776 19.9632 30.0367 19.3138 29.1466 19.3138C28.1528 19.3138 27.3447 20.1222 27.3447 21.1157C27.3447 22.1092 28.1528 22.9176 29.1466 22.9176C29.2263 22.9176 29.3044 22.9107 29.3818 22.9005C28.8602 23.2203 28.249 23.4083 27.5937 23.4083C25.6992 23.4083 24.1578 21.8669 24.1578 19.9724C24.1578 18.078 25.6992 16.5365 27.5937 16.5365C29.4881 16.5365 31.0296 18.078 31.0296 19.9724C31.0292 20.2628 30.9891 20.5431 30.9209 20.8128Z" fill="#535353"/>
<path d="M30.9209 20.8128L28.1509 21.2852L33.6452 21.5013L30.9209 20.8128ZM29.3818 22.9005L30.8503 25.2962L29.0143 20.1146L29.3818 22.9005ZM31.0296 19.9724L33.8396 19.9756V19.9724H31.0296ZM27.5933 13.0679C23.7842 13.0679 20.6889 16.1627 20.6889 19.9724H26.3089C26.3089 19.2668 26.8878 18.6879 27.5933 18.6879V13.0679ZM20.6889 19.9724C20.6889 23.7821 23.7842 26.8769 27.5933 26.8769V21.2569C26.8878 21.2569 26.3089 20.678 26.3089 19.9724H20.6889ZM27.5933 26.8769C31.4025 26.8769 34.4978 23.7821 34.4978 19.9724H28.8778C28.8778 20.678 28.2989 21.2569 27.5933 21.2569V26.8769ZM34.4978 19.9724C34.4978 16.1627 31.4025 13.0679 27.5933 13.0679V18.6879C28.2989 18.6879 28.8778 19.2668 28.8778 19.9724H34.4978ZM29.1466 19.449C30.0683 19.449 30.8133 20.1941 30.8133 21.1157H25.1933C25.1933 23.2979 26.9644 25.069 29.1466 25.069V19.449ZM30.8133 21.1157C30.8133 22.0374 30.0683 22.7824 29.1466 22.7824V17.1624C26.9644 17.1624 25.1933 18.9335 25.1933 21.1157H30.8133ZM29.1466 22.7824C28.225 22.7824 27.48 22.0374 27.48 21.1157H33.1C33.1 18.9335 31.3288 17.1624 29.1466 17.1624V22.7824ZM27.48 21.1157C27.48 20.1941 28.225 19.449 29.1466 19.449V25.069C31.3288 25.069 33.1 23.2979 33.1 21.1157H27.48ZM33.6909 20.3404C33.3209 18.1711 31.437 16.5038 29.1466 16.5038V22.1238C28.6364 22.1238 28.2311 21.7553 28.1509 21.2852L33.6909 20.3404ZM29.1466 16.5038C26.6006 16.5038 24.5347 18.5707 24.5347 21.1157H30.1547C30.1547 21.6738 29.7051 22.1238 29.1466 22.1238V16.5038ZM24.5347 21.1157C24.5347 23.6608 26.6006 25.7276 29.1466 25.7276V20.1076C29.7051 20.1076 30.1547 20.5576 30.1547 21.1157H24.5347ZM29.1466 25.7276C29.3872 25.7276 29.5945 25.7068 29.7493 25.6864L29.0143 20.1146C29.015 20.1146 29.028 20.1128 29.05 20.1111C29.0723 20.1094 29.1053 20.1076 29.1466 20.1076V25.7276ZM27.9132 20.5048C27.809 20.5687 27.7026 20.5983 27.5937 20.5983V26.2183C28.7954 26.2183 29.9113 25.8718 30.8503 25.2962L27.9132 20.5048ZM27.5937 20.5983C27.2512 20.5983 26.9678 20.3149 26.9678 19.9724H21.3478C21.3478 23.4188 24.1473 26.2183 27.5937 26.2183V20.5983ZM26.9678 19.9724C26.9678 19.6299 27.2512 19.3465 27.5937 19.3465V13.7265C24.1473 13.7265 21.3478 16.526 21.3478 19.9724H26.9678ZM27.5937 19.3465C27.9362 19.3465 28.2196 19.6299 28.2196 19.9724H33.8396C33.8396 16.526 31.04 13.7265 27.5937 13.7265V19.3465ZM28.2196 19.9692C28.2195 20.0004 28.2154 20.0495 28.1966 20.1242L33.6452 21.5013C33.7627 21.0366 33.8389 20.5253 33.8396 19.9756L28.2196 19.9692Z" fill="#535353" mask="url(#path-6-inside-3_28_242)"/>
</svg>
